<svg xmlns="http://www.w3.org/2000/svg" xmlns:xlink="http://www.w3.org/1999/xlink" width="1920" zoomAndPan="magnify" viewBox="0 0 1440 809.999993" height="1080" preserveAspectRatio="xMidYMid meet" version="1.2"><defs><clipPath id="d503fd1878"><path d="M 609.125 294.125 L 831.125 294.125 L 831.125 516.125 L 609.125 516.125 Z M 609.125 294.125 "/></clipPath></defs><g id="2549a45a91"><g clip-rule="nonzero" clip-path="url(#d503fd1878)"><path style=" stroke:none;fill-rule:nonzero;fill:#ec2224;fill-opacity:1;" d="M 609.121094 405.128906 C 609.121094 344.003906 658.886719 294.125 720.125 294.125 C 781.25 294.125 831.125 343.890625 831.125 405.128906 C 831.125 466.367188 781.363281 516.132812 720.125 516.132812 C 658.886719 516.015625 609.121094 466.253906 609.121094 405.128906 Z M 609.121094 405.128906 "/></g><path style=" stroke:none;fill-rule:evenodd;fill:#ffffff;fill-opacity:1;" d="M 720.125 492.042969 C 672.179688 492.042969 633.09375 452.960938 633.09375 405.015625 C 633.09375 357.070312 672.179688 317.984375 720.125 317.984375 C 768.070312 317.984375 807.15625 357.070312 807.15625 405.015625 C 807.042969 453.074219 768.070312 492.042969 720.125 492.042969 Z M 720.125 492.042969 "/><path style=" stroke:none;fill-rule:nonzero;fill:#000000;fill-opacity:1;" d="M 680.472656 434.214844 L 668.542969 434.214844 L 668.542969 393.3125 L 654.570312 393.3125 L 654.570312 385.359375 C 658.203125 385.246094 660.816406 384.90625 662.292969 384.679688 C 664.679688 384.109375 666.5 383.085938 667.976562 381.609375 C 669 380.585938 669.792969 379.109375 670.246094 377.40625 C 670.589844 376.382812 670.703125 375.589844 670.703125 375.019531 L 680.359375 375.019531 L 680.359375 434.214844 Z M 680.472656 434.214844 "/><path style=" stroke:none;fill-rule:nonzero;fill:#000000;fill-opacity:1;" d="M 718.535156 435.691406 C 710.921875 435.691406 705.695312 433.078125 702.628906 427.738281 C 699.558594 422.398438 698.082031 414.898438 698.082031 405.128906 C 698.082031 395.359375 699.558594 387.746094 702.628906 382.40625 C 705.695312 377.066406 710.921875 374.453125 718.535156 374.453125 C 726.144531 374.453125 731.371094 377.066406 734.441406 382.40625 C 737.507812 387.746094 738.984375 395.242188 738.984375 405.128906 C 738.984375 414.898438 737.507812 422.511719 734.441406 427.738281 C 731.371094 433.078125 726.03125 435.691406 718.535156 435.691406 Z M 725.351562 420.808594 C 726.371094 417.171875 726.941406 411.945312 726.941406 405.128906 C 726.941406 397.972656 726.371094 392.632812 725.351562 389.222656 C 724.328125 385.8125 722.054688 384.109375 718.535156 384.109375 C 715.011719 384.109375 712.738281 385.8125 711.601562 389.222656 C 710.46875 392.632812 709.898438 397.972656 709.898438 405.128906 C 709.898438 411.945312 710.46875 417.171875 711.601562 420.808594 C 712.738281 424.441406 715.011719 426.261719 718.535156 426.261719 C 722.054688 426.261719 724.214844 424.441406 725.351562 420.808594 Z M 725.351562 420.808594 "/><path style=" stroke:none;fill-rule:nonzero;fill:#000000;fill-opacity:1;" d="M 765.117188 435.691406 C 757.503906 435.691406 752.277344 433.078125 749.210938 427.738281 C 746.140625 422.398438 744.664062 414.898438 744.664062 405.128906 C 744.664062 395.359375 746.140625 387.746094 749.210938 382.40625 C 752.277344 377.066406 757.503906 374.453125 765.117188 374.453125 C 772.726562 374.453125 777.953125 377.066406 781.023438 382.40625 C 784.089844 387.746094 785.566406 395.242188 785.566406 405.128906 C 785.566406 414.898438 784.089844 422.511719 781.023438 427.738281 C 777.953125 433.078125 772.613281 435.691406 765.117188 435.691406 Z M 771.933594 420.808594 C 772.957031 417.171875 773.523438 411.945312 773.523438 405.128906 C 773.523438 397.972656 772.957031 392.632812 771.933594 389.222656 C 770.910156 385.8125 768.636719 384.109375 765.117188 384.109375 C 761.59375 384.109375 759.320312 385.8125 758.1875 389.222656 C 757.050781 392.632812 756.480469 397.972656 756.480469 405.128906 C 756.480469 411.945312 757.050781 417.171875 758.1875 420.808594 C 759.320312 424.441406 761.59375 426.261719 765.117188 426.261719 C 768.636719 426.261719 770.796875 424.441406 771.933594 420.808594 Z M 771.933594 420.808594 "/></g></svg>