<svg xmlns="http://www.w3.org/2000/svg" xmlns:xlink="http://www.w3.org/1999/xlink" width="1920" zoomAndPan="magnify" viewBox="0 0 1440 809.999993" height="1080" preserveAspectRatio="xMidYMid meet" version="1.2"><defs><clipPath id="ef461eed60"><path d="M 609.125 294.125 L 831 294.125 L 831 516 L 609.125 516 Z M 609.125 294.125 "/></clipPath></defs><g id="f2aa569ee0"><g clip-rule="nonzero" clip-path="url(#ef461eed60)"><path style=" stroke:none;fill-rule:nonzero;fill:#f82b2d;fill-opacity:1;" d="M 609.121094 405 C 609.121094 343.945312 658.828125 294.125 719.996094 294.125 C 781.050781 294.125 830.867188 343.832031 830.867188 405 C 830.867188 466.167969 781.164062 515.875 719.996094 515.875 C 658.828125 515.757812 609.121094 466.054688 609.121094 405 Z M 609.121094 405 "/></g><path style=" stroke:none;fill-rule:evenodd;fill:#ffffff;fill-opacity:1;" d="M 719.996094 491.816406 C 672.105469 491.816406 633.066406 452.777344 633.066406 404.886719 C 633.066406 356.996094 672.105469 317.957031 719.996094 317.957031 C 767.882812 317.957031 806.921875 356.996094 806.921875 404.886719 C 806.808594 452.890625 767.882812 491.816406 719.996094 491.816406 Z M 719.996094 491.816406 "/><path style=" stroke:none;fill-rule:nonzero;fill:#000000;fill-opacity:1;" d="M 680.390625 434.050781 L 668.472656 434.050781 L 668.472656 393.199219 L 654.515625 393.199219 L 654.515625 385.253906 C 658.148438 385.140625 660.757812 384.800781 662.230469 384.574219 C 664.617188 384.003906 666.429688 382.984375 667.90625 381.507812 C 668.929688 380.488281 669.722656 379.011719 670.175781 377.308594 C 670.515625 376.289062 670.628906 375.496094 670.628906 374.925781 L 680.277344 374.925781 L 680.277344 434.050781 Z M 680.390625 434.050781 "/><path style=" stroke:none;fill-rule:nonzero;fill:#000000;fill-opacity:1;" d="M 724.421875 386.84375 C 723.058594 385.140625 721.015625 384.347656 718.40625 384.347656 C 714.890625 384.347656 712.503906 385.707031 711.144531 388.316406 C 710.464844 389.792969 710.007812 392.289062 709.78125 395.582031 L 698.433594 395.582031 C 698.660156 390.585938 699.570312 386.503906 701.15625 383.324219 C 704.222656 377.421875 709.78125 374.472656 717.726562 374.472656 C 723.96875 374.472656 728.960938 376.175781 732.707031 379.691406 C 736.449219 383.210938 738.265625 387.75 738.265625 393.539062 C 738.265625 397.964844 736.90625 401.824219 734.292969 405.226562 C 732.59375 407.496094 729.753906 409.992188 725.785156 412.832031 L 721.128906 416.121094 C 718.179688 418.164062 716.25 419.640625 715.117188 420.660156 C 714.09375 421.570312 713.1875 422.703125 712.390625 423.839844 L 738.265625 423.839844 L 738.265625 434.050781 L 697.640625 434.050781 C 697.753906 429.851562 698.660156 425.882812 700.363281 422.363281 C 702.066406 418.390625 705.921875 414.191406 712.164062 409.765625 C 717.5 405.90625 721.015625 403.183594 722.605469 401.480469 C 724.988281 398.871094 726.238281 396.035156 726.238281 392.972656 C 726.464844 390.585938 725.785156 388.542969 724.421875 386.84375 Z M 724.421875 386.84375 "/><path style=" stroke:none;fill-rule:nonzero;fill:#000000;fill-opacity:1;" d="M 764.9375 435.527344 C 757.332031 435.527344 752.113281 432.917969 749.046875 427.582031 C 745.984375 422.25 744.507812 414.757812 744.507812 405 C 744.507812 395.242188 745.984375 387.636719 749.046875 382.304688 C 752.113281 376.96875 757.332031 374.359375 764.9375 374.359375 C 772.539062 374.359375 777.757812 376.96875 780.824219 382.304688 C 783.886719 387.636719 785.363281 395.125 785.363281 405 C 785.363281 414.757812 783.886719 422.363281 780.824219 427.582031 C 777.757812 432.917969 772.425781 435.527344 764.9375 435.527344 Z M 771.746094 420.660156 C 772.765625 417.027344 773.332031 411.808594 773.332031 405 C 773.332031 397.851562 772.765625 392.515625 771.746094 389.113281 C 770.722656 385.707031 768.453125 384.003906 764.9375 384.003906 C 761.417969 384.003906 759.148438 385.707031 758.011719 389.113281 C 756.878906 392.515625 756.3125 397.851562 756.3125 405 C 756.3125 411.808594 756.878906 417.027344 758.011719 420.660156 C 759.148438 424.292969 761.417969 426.109375 764.9375 426.109375 C 768.339844 425.996094 770.609375 424.292969 771.746094 420.660156 Z M 771.746094 420.660156 "/></g></svg>