<svg xmlns="http://www.w3.org/2000/svg" xmlns:xlink="http://www.w3.org/1999/xlink" width="1920" zoomAndPan="magnify" viewBox="0 0 1440 809.999993" height="1080" preserveAspectRatio="xMidYMid meet" version="1.2"><defs><clipPath id="e99d11de84"><path d="M 609.125 294.125 L 831.125 294.125 L 831.125 516.125 L 609.125 516.125 Z M 609.125 294.125 "/></clipPath></defs><g id="f9fc43389c"><g clip-rule="nonzero" clip-path="url(#e99d11de84)"><path style=" stroke:none;fill-rule:nonzero;fill:#ec2224;fill-opacity:1;" d="M 609.125 405.128906 C 609.125 343.890625 658.886719 294.125 720.125 294.125 C 781.25 294.125 831.128906 343.890625 831.128906 405.128906 C 831.128906 466.367188 781.363281 516.132812 720.125 516.132812 C 658.886719 516.015625 609.125 466.253906 609.125 405.128906 Z M 609.125 405.128906 "/></g><path style=" stroke:none;fill-rule:evenodd;fill:#ffffff;fill-opacity:1;" d="M 720.128906 492.042969 C 672.179688 492.042969 633.097656 452.960938 633.097656 405.015625 C 633.097656 357.070312 672.179688 317.984375 720.128906 317.984375 C 768.074219 317.984375 807.15625 357.070312 807.15625 405.015625 C 807.042969 453.074219 768.074219 492.042969 720.128906 492.042969 Z M 720.128906 492.042969 "/><path style=" stroke:none;fill-rule:nonzero;fill:#000000;fill-opacity:1;" d="M 702.855469 386.949219 C 701.492188 385.246094 699.449219 384.449219 696.835938 384.449219 C 693.3125 384.449219 690.925781 385.8125 689.5625 388.425781 C 688.882812 389.90625 688.429688 392.402344 688.199219 395.699219 L 676.839844 395.699219 C 677.066406 390.699219 677.976562 386.609375 679.566406 383.429688 C 682.632812 377.519531 688.199219 374.566406 696.152344 374.566406 C 702.402344 374.566406 707.402344 376.269531 711.152344 379.792969 C 714.898438 383.316406 716.71875 387.859375 716.71875 393.652344 C 716.71875 398.085938 715.355469 401.949219 712.742188 405.355469 C 711.039062 407.628906 708.195312 410.128906 704.21875 412.96875 L 699.5625 416.261719 C 696.609375 418.308594 694.675781 419.785156 693.539062 420.808594 C 692.519531 421.714844 691.609375 422.851562 690.8125 423.988281 L 716.71875 423.988281 L 716.71875 434.214844 L 676.269531 434.214844 C 676.382812 430.011719 677.292969 426.035156 678.996094 422.511719 C 680.703125 418.535156 684.566406 414.332031 690.8125 409.902344 C 696.152344 406.039062 699.675781 403.3125 701.265625 401.605469 C 703.652344 398.992188 704.902344 396.152344 704.902344 393.085938 C 704.902344 390.699219 704.21875 388.65625 702.855469 386.949219 Z M 702.855469 386.949219 "/><path style=" stroke:none;fill-rule:nonzero;fill:#000000;fill-opacity:1;" d="M 743.417969 435.691406 C 735.804688 435.691406 730.578125 433.078125 727.511719 427.738281 C 724.445312 422.398438 722.964844 414.898438 722.964844 405.128906 C 722.964844 395.359375 724.445312 387.746094 727.511719 382.40625 C 730.578125 377.066406 735.804688 374.453125 743.417969 374.453125 C 751.03125 374.453125 756.253906 377.066406 759.324219 382.40625 C 762.390625 387.746094 763.867188 395.242188 763.867188 405.128906 C 763.867188 414.898438 762.390625 422.511719 759.324219 427.738281 C 756.253906 433.078125 750.914062 435.691406 743.417969 435.691406 Z M 750.234375 420.808594 C 751.257812 417.171875 751.824219 411.945312 751.824219 405.128906 C 751.824219 397.972656 751.257812 392.628906 750.234375 389.222656 C 749.210938 385.8125 746.9375 384.109375 743.417969 384.109375 C 740.007812 384.109375 737.621094 385.8125 736.488281 389.222656 C 735.351562 392.628906 734.78125 397.972656 734.78125 405.128906 C 734.78125 411.945312 735.351562 417.171875 736.488281 420.808594 C 737.621094 424.441406 739.894531 426.261719 743.417969 426.261719 C 746.824219 426.148438 749.097656 424.441406 750.234375 420.808594 Z M 750.234375 420.808594 "/></g></svg>