<svg xmlns="http://www.w3.org/2000/svg" xmlns:xlink="http://www.w3.org/1999/xlink" width="1920" zoomAndPan="magnify" viewBox="0 0 1440 809.999993" height="1080" preserveAspectRatio="xMidYMid meet" version="1.2"><defs><clipPath id="b7f04bf92b"><path d="M 609.125 294.125 L 831.125 294.125 L 831.125 516.125 L 609.125 516.125 Z M 609.125 294.125 "/></clipPath></defs><g id="e50d546884"><g clip-rule="nonzero" clip-path="url(#b7f04bf92b)"><path style=" stroke:none;fill-rule:nonzero;fill:#ec2224;fill-opacity:1;" d="M 609.125 405.128906 C 609.125 344.003906 658.890625 294.125 720.128906 294.125 C 781.253906 294.125 831.128906 343.890625 831.128906 405.128906 C 831.128906 466.367188 781.367188 516.132812 720.128906 516.132812 C 658.890625 516.015625 609.125 466.253906 609.125 405.128906 Z M 609.125 405.128906 "/></g><path style=" stroke:none;fill-rule:evenodd;fill:#ffffff;fill-opacity:1;" d="M 720.128906 492.042969 C 672.183594 492.042969 633.097656 452.960938 633.097656 405.015625 C 633.097656 357.070312 672.183594 317.984375 720.128906 317.984375 C 768.074219 317.984375 807.15625 357.070312 807.15625 405.015625 C 807.042969 453.074219 768.074219 492.042969 720.128906 492.042969 Z M 720.128906 492.042969 "/><path style=" stroke:none;fill-rule:nonzero;fill:#000000;fill-opacity:1;" d="M 689.90625 386.722656 C 688.542969 388.425781 687.976562 390.8125 687.976562 393.765625 L 677.066406 393.765625 C 677.183594 390.8125 677.636719 387.972656 678.546875 385.359375 C 679.453125 383.085938 681.046875 380.929688 683.089844 378.882812 C 684.566406 377.519531 686.386719 376.382812 688.542969 375.703125 C 690.589844 375.019531 693.203125 374.566406 696.269531 374.566406 C 701.949219 374.566406 706.496094 376.042969 710.015625 378.996094 C 713.539062 381.949219 715.242188 385.8125 715.242188 390.8125 C 715.242188 394.335938 714.21875 397.289062 712.175781 399.675781 C 710.8125 401.152344 709.449219 402.175781 708.085938 402.742188 C 709.109375 402.742188 710.699219 403.652344 712.628906 405.46875 C 715.585938 408.195312 717.0625 411.945312 717.0625 416.71875 C 717.0625 421.714844 715.355469 426.148438 711.835938 430.011719 C 708.3125 433.761719 703.199219 435.691406 696.382812 435.691406 C 687.976562 435.691406 682.179688 432.964844 678.886719 427.511719 C 677.183594 424.558594 676.160156 420.808594 676.046875 416.035156 L 687.519531 416.035156 C 687.519531 418.421875 687.863281 420.351562 688.65625 421.945312 C 690.019531 424.785156 692.632812 426.261719 696.382812 426.261719 C 698.65625 426.261719 700.699219 425.464844 702.40625 423.875 C 704.109375 422.285156 705.019531 420.011719 705.019531 417.058594 C 705.019531 413.195312 703.425781 410.582031 700.246094 409.21875 C 698.429688 408.539062 695.585938 408.082031 691.726562 408.082031 L 691.726562 399.789062 C 695.472656 399.789062 698.199219 399.335938 699.679688 398.652344 C 702.289062 397.515625 703.539062 395.246094 703.539062 391.722656 C 703.539062 389.449219 702.859375 387.632812 701.609375 386.15625 C 700.246094 384.792969 698.429688 383.996094 696.042969 383.996094 C 693.203125 384.109375 691.269531 385.019531 689.90625 386.722656 Z M 689.90625 386.722656 "/><path style=" stroke:none;fill-rule:nonzero;fill:#000000;fill-opacity:1;" d="M 743.648438 435.691406 C 736.035156 435.691406 730.808594 433.078125 727.742188 427.738281 C 724.671875 422.398438 723.195312 414.898438 723.195312 405.128906 C 723.195312 395.359375 724.671875 387.746094 727.742188 382.40625 C 730.808594 377.066406 736.035156 374.453125 743.648438 374.453125 C 751.257812 374.453125 756.484375 377.066406 759.554688 382.40625 C 762.621094 387.746094 764.097656 395.242188 764.097656 405.128906 C 764.097656 414.898438 762.621094 422.511719 759.554688 427.738281 C 756.484375 433.078125 751.144531 435.691406 743.648438 435.691406 Z M 750.464844 420.808594 C 751.488281 417.171875 752.054688 411.945312 752.054688 405.128906 C 752.054688 397.972656 751.488281 392.632812 750.464844 389.222656 C 749.441406 385.8125 747.167969 384.109375 743.648438 384.109375 C 740.238281 384.109375 737.851562 385.8125 736.714844 389.222656 C 735.582031 392.632812 735.011719 397.972656 735.011719 405.128906 C 735.011719 411.945312 735.582031 417.171875 736.714844 420.808594 C 737.851562 424.441406 740.125 426.261719 743.648438 426.261719 C 747.054688 426.148438 749.328125 424.441406 750.464844 420.808594 Z M 750.464844 420.808594 "/></g></svg>