<svg xmlns="http://www.w3.org/2000/svg" xmlns:xlink="http://www.w3.org/1999/xlink" width="1920" zoomAndPan="magnify" viewBox="0 0 1440 809.999993" height="1080" preserveAspectRatio="xMidYMid meet" version="1.2"><defs><clipPath id="b34d09ffae"><path d="M 609.125 294.125 L 831.125 294.125 L 831.125 516.125 L 609.125 516.125 Z M 609.125 294.125 "/></clipPath></defs><g id="84a7d3c714"><g clip-rule="nonzero" clip-path="url(#b34d09ffae)"><path style=" stroke:none;fill-rule:nonzero;fill:#ec2224;fill-opacity:1;" d="M 609.128906 405.128906 C 609.128906 344.003906 658.890625 294.125 720.128906 294.125 C 781.253906 294.125 831.132812 343.890625 831.132812 405.128906 C 831.132812 466.367188 781.367188 516.132812 720.128906 516.132812 C 658.890625 516.015625 609.128906 466.253906 609.128906 405.128906 Z M 609.128906 405.128906 "/></g><path style=" stroke:none;fill-rule:evenodd;fill:#ffffff;fill-opacity:1;" d="M 720.128906 492.042969 C 672.183594 492.042969 633.101562 452.960938 633.101562 405.015625 C 633.101562 357.070312 672.183594 317.984375 720.128906 317.984375 C 768.074219 317.984375 807.160156 357.070312 807.160156 405.015625 C 807.046875 453.074219 768.074219 492.042969 720.128906 492.042969 Z M 720.128906 492.042969 "/><path style=" stroke:none;fill-rule:nonzero;fill:#000000;fill-opacity:1;" d="M 717.742188 412.285156 L 717.742188 421.375 L 711.039062 421.375 L 711.039062 434.101562 L 699.679688 434.101562 L 699.679688 421.375 L 676.160156 421.375 L 676.160156 411.152344 L 697.972656 375.25 L 711.039062 375.25 L 711.039062 412.285156 Z M 684.792969 412.285156 L 699.679688 412.285156 L 699.679688 386.722656 Z M 684.792969 412.285156 "/><path style=" stroke:none;fill-rule:nonzero;fill:#000000;fill-opacity:1;" d="M 743.648438 435.691406 C 736.035156 435.691406 730.808594 433.078125 727.742188 427.738281 C 724.675781 422.398438 723.199219 414.898438 723.199219 405.128906 C 723.199219 395.359375 724.675781 387.746094 727.742188 382.40625 C 730.808594 377.066406 736.035156 374.453125 743.648438 374.453125 C 751.261719 374.453125 756.488281 377.066406 759.554688 382.40625 C 762.621094 387.746094 764.097656 395.246094 764.097656 405.128906 C 764.097656 414.898438 762.621094 422.511719 759.554688 427.738281 C 756.488281 433.078125 751.148438 435.691406 743.648438 435.691406 Z M 750.464844 420.808594 C 751.488281 417.171875 752.054688 411.945312 752.054688 405.128906 C 752.054688 397.972656 751.488281 392.632812 750.464844 389.222656 C 749.441406 385.8125 747.171875 384.109375 743.648438 384.109375 C 740.238281 384.109375 737.855469 385.8125 736.71875 389.222656 C 735.582031 392.632812 735.011719 397.972656 735.011719 405.128906 C 735.011719 411.945312 735.582031 417.171875 736.71875 420.808594 C 737.855469 424.445312 740.125 426.261719 743.648438 426.261719 C 747.058594 426.148438 749.328125 424.445312 750.464844 420.808594 Z M 750.464844 420.808594 "/></g></svg>