<svg xmlns="http://www.w3.org/2000/svg" xmlns:xlink="http://www.w3.org/1999/xlink" width="1920" zoomAndPan="magnify" viewBox="0 0 1440 809.999993" height="1080" preserveAspectRatio="xMidYMid meet" version="1.2"><defs><clipPath id="cb0800ec9f"><path d="M 609.125 294.125 L 831.125 294.125 L 831.125 516.125 L 609.125 516.125 Z M 609.125 294.125 "/></clipPath></defs><g id="4020fc0390"><g clip-rule="nonzero" clip-path="url(#cb0800ec9f)"><path style=" stroke:none;fill-rule:nonzero;fill:#ec2224;fill-opacity:1;" d="M 609.125 405.128906 C 609.125 344.003906 658.886719 294.125 720.125 294.125 C 781.25 294.125 831.128906 343.890625 831.128906 405.128906 C 831.128906 466.367188 781.363281 516.132812 720.125 516.132812 C 658.886719 516.015625 609.125 466.253906 609.125 405.128906 Z M 609.125 405.128906 "/></g><path style=" stroke:none;fill-rule:evenodd;fill:#ffffff;fill-opacity:1;" d="M 720.125 492.042969 C 672.179688 492.042969 633.097656 452.960938 633.097656 405.015625 C 633.097656 357.070312 672.179688 317.984375 720.125 317.984375 C 768.070312 317.984375 807.15625 357.070312 807.15625 405.015625 C 807.042969 453.074219 768.070312 492.042969 720.125 492.042969 Z M 720.125 492.042969 "/><path style=" stroke:none;fill-rule:nonzero;fill:#000000;fill-opacity:1;" d="M 696.265625 404.675781 C 694.902344 404.675781 693.652344 404.902344 692.632812 405.242188 C 690.8125 405.925781 689.449219 407.058594 688.539062 408.878906 L 678.089844 408.421875 L 682.292969 375.589844 L 715.011719 375.589844 L 715.011719 385.472656 L 690.699219 385.472656 L 688.539062 398.425781 C 690.359375 397.289062 691.722656 396.492188 692.746094 396.039062 C 694.449219 395.359375 696.492188 395.128906 698.878906 395.128906 C 703.765625 395.128906 708.082031 396.835938 711.71875 400.128906 C 715.355469 403.425781 717.171875 408.195312 717.171875 414.558594 C 717.171875 420.011719 715.46875 424.898438 711.945312 429.214844 C 708.421875 433.53125 703.195312 435.691406 696.152344 435.691406 C 690.472656 435.691406 685.8125 434.214844 682.292969 431.148438 C 678.65625 428.078125 676.609375 423.875 676.269531 418.308594 L 687.859375 418.308594 C 688.3125 420.808594 689.222656 422.851562 690.472656 424.214844 C 691.835938 425.578125 693.652344 426.261719 696.152344 426.261719 C 698.992188 426.261719 701.265625 425.238281 702.742188 423.195312 C 704.21875 421.148438 705.015625 418.648438 705.015625 415.46875 C 705.015625 412.398438 704.332031 409.902344 702.855469 407.742188 C 701.492188 405.8125 699.222656 404.675781 696.265625 404.675781 Z M 696.265625 404.675781 "/><path style=" stroke:none;fill-rule:nonzero;fill:#000000;fill-opacity:1;" d="M 743.644531 435.691406 C 736.03125 435.691406 730.808594 433.078125 727.738281 427.738281 C 724.671875 422.398438 723.195312 414.898438 723.195312 405.128906 C 723.195312 395.359375 724.671875 387.746094 727.738281 382.40625 C 730.808594 377.066406 736.03125 374.453125 743.644531 374.453125 C 751.257812 374.453125 756.484375 377.066406 759.550781 382.40625 C 762.617188 387.746094 764.097656 395.246094 764.097656 405.128906 C 764.097656 414.898438 762.617188 422.511719 759.550781 427.738281 C 756.484375 432.964844 751.144531 435.691406 743.644531 435.691406 Z M 750.460938 420.695312 C 751.484375 417.058594 752.054688 411.832031 752.054688 405.015625 C 752.054688 397.855469 751.484375 392.515625 750.460938 389.109375 C 749.441406 385.699219 747.167969 383.996094 743.644531 383.996094 C 740.238281 383.996094 737.851562 385.699219 736.714844 389.109375 C 735.578125 392.515625 735.011719 397.855469 735.011719 405.015625 C 735.011719 411.832031 735.578125 417.058594 736.714844 420.695312 C 737.851562 424.328125 740.125 426.148438 743.644531 426.148438 C 747.054688 426.148438 749.324219 424.328125 750.460938 420.695312 Z M 750.460938 420.695312 "/></g></svg>