<svg xmlns="http://www.w3.org/2000/svg" xmlns:xlink="http://www.w3.org/1999/xlink" width="1920" zoomAndPan="magnify" viewBox="0 0 1440 809.999993" height="1080" preserveAspectRatio="xMidYMid meet" version="1.2"><defs><clipPath id="65171b78db"><path d="M 609.125 294.125 L 831.125 294.125 L 831.125 516.125 L 609.125 516.125 Z M 609.125 294.125 "/></clipPath></defs><g id="955602747d"><g clip-rule="nonzero" clip-path="url(#65171b78db)"><path style=" stroke:none;fill-rule:nonzero;fill:#ec2224;fill-opacity:1;" d="M 609.125 405.128906 C 609.125 344.003906 658.886719 294.125 720.128906 294.125 C 781.253906 294.125 831.128906 343.890625 831.128906 405.128906 C 831.128906 466.367188 781.367188 516.132812 720.128906 516.132812 C 658.886719 516.015625 609.125 466.253906 609.125 405.128906 Z M 609.125 405.128906 "/></g><path style=" stroke:none;fill-rule:evenodd;fill:#ffffff;fill-opacity:1;" d="M 720.128906 492.042969 C 672.179688 492.042969 633.097656 452.960938 633.097656 405.015625 C 633.097656 357.070312 672.179688 317.984375 720.128906 317.984375 C 768.074219 317.984375 807.15625 357.070312 807.15625 405.015625 C 807.042969 453.074219 768.074219 492.042969 720.128906 492.042969 Z M 720.128906 492.042969 "/><path style=" stroke:none;fill-rule:nonzero;fill:#000000;fill-opacity:1;" d="M 699.335938 395.699219 C 704.5625 395.699219 708.878906 397.515625 712.289062 401.039062 C 715.695312 404.558594 717.285156 409.21875 717.285156 414.785156 C 717.285156 420.351562 715.582031 425.238281 712.289062 429.441406 C 708.992188 433.644531 703.878906 435.804688 696.949219 435.804688 C 689.449219 435.804688 683.996094 432.738281 680.363281 426.488281 C 677.636719 421.601562 676.269531 415.355469 676.269531 407.628906 C 676.269531 403.082031 676.5 399.449219 676.839844 396.609375 C 677.519531 391.609375 678.882812 387.40625 680.816406 383.996094 C 682.519531 381.15625 684.679688 378.882812 687.519531 377.066406 C 690.246094 375.359375 693.539062 374.453125 697.402344 374.453125 C 702.972656 374.453125 707.289062 375.816406 710.582031 378.65625 C 713.878906 381.496094 715.695312 385.246094 716.152344 389.902344 L 704.5625 389.902344 C 704.5625 388.996094 704.222656 387.859375 703.425781 386.722656 C 702.175781 384.90625 700.246094 383.996094 697.746094 383.996094 C 693.996094 383.996094 691.269531 386.15625 689.679688 390.359375 C 688.769531 392.746094 688.199219 396.152344 687.859375 400.699219 C 689.335938 398.992188 690.929688 397.742188 692.859375 396.949219 C 694.675781 396.152344 696.835938 395.699219 699.335938 395.699219 Z M 691.496094 406.832031 C 689.222656 408.652344 688.085938 411.492188 688.085938 415.46875 C 688.085938 418.648438 688.996094 421.261719 690.699219 423.308594 C 692.40625 425.351562 694.5625 426.375 697.289062 426.375 C 699.902344 426.375 701.949219 425.351562 703.425781 423.421875 C 704.902344 421.488281 705.699219 418.988281 705.699219 415.808594 C 705.699219 412.398438 704.902344 409.671875 703.199219 407.855469 C 701.492188 406.039062 699.449219 405.128906 696.949219 405.128906 C 694.789062 405.128906 692.972656 405.695312 691.496094 406.832031 Z M 691.496094 406.832031 "/><path style=" stroke:none;fill-rule:nonzero;fill:#000000;fill-opacity:1;" d="M 743.417969 435.691406 C 735.804688 435.691406 730.578125 433.078125 727.511719 427.738281 C 724.445312 422.398438 722.96875 414.898438 722.96875 405.128906 C 722.96875 395.359375 724.445312 387.746094 727.511719 382.40625 C 730.578125 377.066406 735.804688 374.453125 743.417969 374.453125 C 751.03125 374.453125 756.257812 377.066406 759.324219 382.40625 C 762.390625 387.746094 763.867188 395.242188 763.867188 405.128906 C 763.867188 414.898438 762.390625 422.511719 759.324219 427.738281 C 756.257812 433.078125 750.917969 435.691406 743.417969 435.691406 Z M 750.234375 420.808594 C 751.257812 417.171875 751.824219 411.945312 751.824219 405.128906 C 751.824219 397.972656 751.257812 392.628906 750.234375 389.222656 C 749.210938 385.8125 746.941406 384.109375 743.417969 384.109375 C 740.007812 384.109375 737.625 385.8125 736.488281 389.222656 C 735.351562 392.628906 734.785156 397.972656 734.785156 405.128906 C 734.785156 411.945312 735.351562 417.171875 736.488281 420.808594 C 737.625 424.441406 739.894531 426.261719 743.417969 426.261719 C 746.828125 426.261719 749.097656 424.441406 750.234375 420.808594 Z M 750.234375 420.808594 "/></g></svg>