<svg xmlns="http://www.w3.org/2000/svg" xmlns:xlink="http://www.w3.org/1999/xlink" width="1920" zoomAndPan="magnify" viewBox="0 0 1440 809.999993" height="1080" preserveAspectRatio="xMidYMid meet" version="1.2"><defs><clipPath id="86e7a64496"><path d="M 609.125 294.125 L 831.125 294.125 L 831.125 516.125 L 609.125 516.125 Z M 609.125 294.125 "/></clipPath></defs><g id="73d3fb1854"><g clip-rule="nonzero" clip-path="url(#86e7a64496)"><path style=" stroke:none;fill-rule:nonzero;fill:#ec2224;fill-opacity:1;" d="M 609.125 405.128906 C 609.125 344.003906 658.886719 294.125 720.125 294.125 C 781.25 294.125 831.128906 343.890625 831.128906 405.128906 C 831.128906 466.367188 781.367188 516.132812 720.125 516.132812 C 658.886719 516.015625 609.125 466.253906 609.125 405.128906 Z M 609.125 405.128906 "/></g><path style=" stroke:none;fill-rule:evenodd;fill:#ffffff;fill-opacity:1;" d="M 720.125 492.042969 C 672.179688 492.042969 633.097656 452.960938 633.097656 405.015625 C 633.097656 357.070312 672.179688 317.984375 720.125 317.984375 C 768.070312 317.984375 807.15625 357.070312 807.15625 405.015625 C 807.042969 453.074219 768.070312 492.042969 720.125 492.042969 Z M 720.125 492.042969 "/><path style=" stroke:none;fill-rule:nonzero;fill:#000000;fill-opacity:1;" d="M 681.269531 430.464844 C 677.859375 426.941406 676.15625 422.738281 676.15625 417.738281 C 676.15625 414.445312 676.953125 411.378906 678.429688 408.652344 C 679.90625 405.925781 682.179688 403.878906 685.132812 402.515625 C 682.292969 400.585938 680.359375 398.539062 679.566406 396.265625 C 678.65625 393.996094 678.316406 391.949219 678.316406 390.019531 C 678.316406 385.699219 679.90625 382.066406 683.199219 378.996094 C 686.496094 375.929688 691.039062 374.453125 696.949219 374.453125 C 702.855469 374.453125 707.402344 375.929688 710.695312 378.996094 C 713.992188 382.066406 715.582031 385.699219 715.582031 390.019531 C 715.582031 391.949219 715.128906 393.996094 714.332031 396.265625 C 713.421875 398.539062 711.605469 400.46875 708.765625 402.0625 C 711.71875 403.652344 713.878906 405.808594 715.355469 408.539062 C 716.832031 411.265625 717.511719 414.21875 717.511719 417.625 C 717.511719 422.625 715.695312 426.828125 711.945312 430.351562 C 708.195312 433.875 703.082031 435.578125 696.496094 435.578125 C 689.90625 435.578125 684.679688 433.988281 681.269531 430.464844 Z M 688.199219 416.945312 C 688.199219 419.898438 688.996094 422.171875 690.472656 423.761719 C 691.949219 425.351562 694.109375 426.148438 696.722656 426.148438 C 699.335938 426.148438 701.492188 425.351562 702.96875 423.761719 C 704.445312 422.171875 705.242188 419.898438 705.242188 416.945312 C 705.242188 413.878906 704.445312 411.605469 702.96875 410.015625 C 701.378906 408.421875 699.335938 407.628906 696.722656 407.628906 C 694.109375 407.628906 692.0625 408.421875 690.472656 410.015625 C 688.996094 411.605469 688.199219 413.878906 688.199219 416.945312 Z M 691.269531 396.722656 C 692.632812 398.085938 694.449219 398.765625 696.722656 398.765625 C 699.105469 398.765625 700.925781 398.085938 702.175781 396.722656 C 703.425781 395.359375 704.105469 393.652344 704.105469 391.496094 C 704.105469 389.109375 703.425781 387.289062 702.175781 386.042969 C 700.925781 384.679688 698.992188 384.109375 696.722656 384.109375 C 694.335938 384.109375 692.519531 384.792969 691.269531 386.042969 C 689.90625 387.40625 689.335938 389.222656 689.335938 391.496094 C 689.335938 393.652344 690.019531 395.359375 691.269531 396.722656 Z M 691.269531 396.722656 "/><path style=" stroke:none;fill-rule:nonzero;fill:#000000;fill-opacity:1;" d="M 743.644531 435.691406 C 736.03125 435.691406 730.804688 433.078125 727.738281 427.738281 C 724.671875 422.398438 723.195312 414.898438 723.195312 405.128906 C 723.195312 395.359375 724.671875 387.746094 727.738281 382.40625 C 730.804688 377.066406 736.03125 374.453125 743.644531 374.453125 C 751.257812 374.453125 756.484375 377.066406 759.550781 382.40625 C 762.617188 387.746094 764.097656 395.242188 764.097656 405.128906 C 764.097656 414.898438 762.617188 422.511719 759.550781 427.738281 C 756.484375 432.964844 751.144531 435.691406 743.644531 435.691406 Z M 750.460938 420.695312 C 751.484375 417.058594 752.050781 411.832031 752.050781 405.015625 C 752.050781 397.855469 751.484375 392.515625 750.460938 389.109375 C 749.441406 385.699219 747.167969 383.996094 743.644531 383.996094 C 740.121094 383.996094 737.851562 385.699219 736.714844 389.109375 C 735.578125 392.515625 735.011719 397.855469 735.011719 405.015625 C 735.011719 411.832031 735.578125 417.058594 736.714844 420.695312 C 737.851562 424.328125 740.121094 426.148438 743.644531 426.148438 C 747.167969 426.148438 749.324219 424.328125 750.460938 420.695312 Z M 750.460938 420.695312 "/></g></svg>